<svg width="448" height="auto" viewBox="-32 -320 448 368" fill="#fff" stroke="#fff" xmlns="http://www.w3.org/2000/svg">
<defs>
<marker id="circle" refX="4" refY="4" markerWidth="8" markerHeight="8">
<circle stroke="currentColor" stroke-width="1" r="1" cx="4" cy="4"/>
</marker>
<marker id="square" refX="4" refY="4" markerWidth="8" markerHeight="8">
<path stroke="currentColor" stroke-width="1" d="M3 3h2v2h-2z" />
</marker>
</defs>
<path fill="none" stroke="currentColor" stroke-width="1" d="
M0 0h384v-288h-384z
M0 0m48 -4v4m48 -4v4m48 -4v4m48 -4v4m48 -4v4m48 -4v4m48 -4v4
M0 0m4 -48h-4m4 -48h-4m4 -48h-4m4 -48h-4m4 -48h-4
M0 -288m48 4v-4m48 4v-4m48 4v-4m48 4v-4m48 4v-4m48 4v-4m48 4v-4
M384 0m-4 -48h4m-4 -48h4m-4 -48h4m-4 -48h4m-4 -48h4
" />
<path fill="none" stroke="currentColor" stroke-width="3" marker-start="url(#square)" marker-mid="url(#square)" marker-end="url(#square)" d="M0 -84.0 48 -177.1 96 -192.6 144 -192.3 192 -234.6 240 -219.8 288 -209.7 336 -190.3" />
<path fill="none" stroke="currentColor" stroke-width="3" marker-start="url(#circle)" marker-mid="url(#circle)" marker-end="url(#circle)" d="M0 -49.6 48 -50.0 96 -52.5 144 -52.6 192 -52.6 240 -52.6 288 -52.7 336 -52.7" />
<path fill="none" stroke="currentColor" stroke-width="3" marker-start="url(#circle)" marker-mid="url(#circle)" marker-end="url(#circle)" d="M0 -85.6 48 -86.7 96 -87.2 144 -87.2 192 -87.2 240 -87.2 288 -87.2 336 -87.2 384 -87.2" />
<g fill="none" stroke-width="8" font-size="16" text-anchor="middle" font-family="-apple-system, sans-serif">
<text x="336" y="-166.336154938">7TFlops</text>
<text x="336" y="-28.7314338684">4TFlops</text>
<text x="384" y="-63.1885814666">10TFlops</text>
<text x="-8" y="6" text-anchor="end">0</text>
<text x="-8" y="-90" text-anchor="end">4</text>
<text x="-8" y="-186" text-anchor="end">8</text>
<text x="-8" y="-282" text-anchor="end">12</text>
<text x="0" y="20">1</text>
<text x="48" y="20">4</text>
<text x="96" y="20">16</text>
<text x="144" y="20">64</text>
<text x="192" y="20">256</text>
<text x="240" y="20">1k</text>
<text x="288" y="20">4k</text>
<text x="336" y="20">16k</text>
<text x="384" y="20">64k</text>
<text x="192" y="-300">Runtime/step (s)</text>
<text x="192" y="-247">TACC Ranger (8M elem/core)</text>
<text x="192" y="-102">ALCF Intrepid (1M elem/core)</text>
<text x="192" y="-29">ALCF Vesta (1M elem/core)</text>
<text x="192" y="40">Cores</text>
</g>
<g fill="currentColor" stroke="none" font-size="16" text-anchor="middle" font-family="-apple-system, sans-serif">
<text x="336" y="-166.336154938">7TFlops</text>
<text x="336" y="-28.7314338684">4TFlops</text>
<text x="384" y="-63.1885814666">10TFlops</text>
<text x="-8" y="6" text-anchor="end">0</text>
<text x="-8" y="-90" text-anchor="end">4</text>
<text x="-8" y="-186" text-anchor="end">8</text>
<text x="-8" y="-282" text-anchor="end">12</text>
<text x="0" y="20">1</text>
<text x="48" y="20">4</text>
<text x="96" y="20">16</text>
<text x="144" y="20">64</text>
<text x="192" y="20">256</text>
<text x="240" y="20">1k</text>
<text x="288" y="20">4k</text>
<text x="336" y="20">16k</text>
<text x="384" y="20">64k</text>
<text x="192" y="-300">Runtime/step (s)</text>
<text x="192" y="-247">TACC Ranger (8M elem/core)</text>
<text x="192" y="-102">ALCF Intrepid (1M elem/core)</text>
<text x="192" y="-29">ALCF Vesta (1M elem/core)</text>
<text x="192" y="40">Cores</text>
</g>
</svg>
