<?xml version="1.0" encoding="utf-8" standalone="no"?>
<!DOCTYPE svg PUBLIC "-//W3C//DTD SVG 1.1//EN"
  "http://www.w3.org/Graphics/SVG/1.1/DTD/svg11.dtd">
<!-- Created with matplotlib (http://matplotlib.org/) -->
<svg height="144pt" version="1.1" viewBox="0 0 576 144" width="576pt" xmlns="http://www.w3.org/2000/svg" xmlns:xlink="http://www.w3.org/1999/xlink">
 <g id="figure_1">
  <g id="patch_1">
   <path d="
M0 144
L576 144
L576 0
L0 0
z
" style="fill:#ffffff;"/>
  </g>
  <g id="axes_1">
   <g id="patch_2">
    <path d="
M14.4 138.24
L279.36 138.24
L279.36 5.76
L14.4 5.76
z
" style="fill:#ffffff;"/>
   </g>
   <g id="line2d_1">
    <path clip-path="url(#p5f9f4ac8f9)" d="
M-7.68 160.32" style="fill:none;stroke:#b2b2b2;stroke-linecap:square;"/>
   </g>
   <g id="line2d_2">
    <path clip-path="url(#p5f9f4ac8f9)" d="
M-7.68 116.16
M-1 116.16
L36.48 116.16
L80.64 116.16
L124.8 116.16
L168.96 116.16
L213.12 116.16
L257.28 116.16
L301.44 116.16" style="fill:none;stroke:#b2b2b2;stroke-linecap:square;"/>
   </g>
   <g id="line2d_3">
    <path clip-path="url(#p5f9f4ac8f9)" d="
M-7.68 72
M-1 72
L36.48 72
L80.64 72
L124.8 72
L168.96 72
L213.12 72
L257.28 72
L301.44 72" style="fill:none;stroke:#b2b2b2;stroke-linecap:square;"/>
   </g>
   <g id="line2d_4">
    <path clip-path="url(#p5f9f4ac8f9)" d="
M-7.68 27.84
M-1 27.84
L36.48 27.84
L80.64 27.84
L124.8 27.84
L168.96 27.84
L213.12 27.84
L257.28 27.84
L301.44 27.84" style="fill:none;stroke:#b2b2b2;stroke-linecap:square;"/>
   </g>
   <g id="line2d_5">
    <path clip-path="url(#p5f9f4ac8f9)" d="
M-7.68 -16.32" style="fill:none;stroke:#b2b2b2;stroke-linecap:square;"/>
   </g>
   <g id="line2d_6">
    <path clip-path="url(#p5f9f4ac8f9)" d="
M-7.68 160.32" style="fill:none;stroke:#b2b2b2;stroke-linecap:square;"/>
    <defs>
     <path d="
M0 3
C0.795609 3 1.55874 2.6839 2.12132 2.12132
C2.6839 1.55874 3 0.795609 3 0
C3 -0.795609 2.6839 -1.55874 2.12132 -2.12132
C1.55874 -2.6839 0.795609 -3 0 -3
C-0.795609 -3 -1.55874 -2.6839 -2.12132 -2.12132
C-2.6839 -1.55874 -3 -0.795609 -3 0
C-3 0.795609 -2.6839 1.55874 -2.12132 2.12132
C-1.55874 2.6839 -0.795609 3 0 3
z
" id="m2a1ef9ac94" style="stroke:#ffffff;stroke-width:0.5;"/>
    </defs>
    <g clip-path="url(#p5f9f4ac8f9)">
     <use style="fill:#b2b2b2;stroke:#ffffff;stroke-width:0.5;" x="-7.68" xlink:href="#m2a1ef9ac94" y="160.32"/>
    </g>
   </g>
   <g id="line2d_7">
    <path clip-path="url(#p5f9f4ac8f9)" d="
M36.48 160.32
M36.48 145
L36.48 116.16
L36.48 72
L36.48 27.84
L36.48 -1" style="fill:none;stroke:#b2b2b2;stroke-linecap:square;"/>
    <g clip-path="url(#p5f9f4ac8f9)">
     <use style="fill:#b2b2b2;stroke:#ffffff;stroke-width:0.5;" x="36.48" xlink:href="#m2a1ef9ac94" y="160.32"/>
     <use style="fill:#b2b2b2;stroke:#ffffff;stroke-width:0.5;" x="36.48" xlink:href="#m2a1ef9ac94" y="116.16"/>
     <use style="fill:#b2b2b2;stroke:#ffffff;stroke-width:0.5;" x="36.48" xlink:href="#m2a1ef9ac94" y="72.0"/>
     <use style="fill:#b2b2b2;stroke:#ffffff;stroke-width:0.5;" x="36.48" xlink:href="#m2a1ef9ac94" y="27.84"/>
     <use style="fill:#b2b2b2;stroke:#ffffff;stroke-width:0.5;" x="36.48" xlink:href="#m2a1ef9ac94" y="-1.0"/>
    </g>
   </g>
   <g id="line2d_8">
    <path clip-path="url(#p5f9f4ac8f9)" d="
M80.64 160.32
M80.64 145
L80.64 116.16
L80.64 72
L80.64 27.84
L80.64 -1" style="fill:none;stroke:#b2b2b2;stroke-linecap:square;"/>
    <g clip-path="url(#p5f9f4ac8f9)">
     <use style="fill:#b2b2b2;stroke:#ffffff;stroke-width:0.5;" x="80.64" xlink:href="#m2a1ef9ac94" y="160.32"/>
     <use style="fill:#b2b2b2;stroke:#ffffff;stroke-width:0.5;" x="80.64" xlink:href="#m2a1ef9ac94" y="116.16"/>
     <use style="fill:#b2b2b2;stroke:#ffffff;stroke-width:0.5;" x="80.64" xlink:href="#m2a1ef9ac94" y="72.0"/>
     <use style="fill:#b2b2b2;stroke:#ffffff;stroke-width:0.5;" x="80.64" xlink:href="#m2a1ef9ac94" y="27.84"/>
     <use style="fill:#b2b2b2;stroke:#ffffff;stroke-width:0.5;" x="80.64" xlink:href="#m2a1ef9ac94" y="-1.0"/>
    </g>
   </g>
   <g id="line2d_9">
    <path clip-path="url(#p5f9f4ac8f9)" d="
M124.8 160.32
M124.8 145
L124.8 116.16
L124.8 72
L124.8 27.84
L124.8 -1" style="fill:none;stroke:#b2b2b2;stroke-linecap:square;"/>
    <g clip-path="url(#p5f9f4ac8f9)">
     <use style="fill:#b2b2b2;stroke:#ffffff;stroke-width:0.5;" x="124.8" xlink:href="#m2a1ef9ac94" y="160.32"/>
     <use style="fill:#b2b2b2;stroke:#ffffff;stroke-width:0.5;" x="124.8" xlink:href="#m2a1ef9ac94" y="116.16"/>
     <use style="fill:#b2b2b2;stroke:#ffffff;stroke-width:0.5;" x="124.8" xlink:href="#m2a1ef9ac94" y="72.0"/>
     <use style="fill:#b2b2b2;stroke:#ffffff;stroke-width:0.5;" x="124.8" xlink:href="#m2a1ef9ac94" y="27.84"/>
     <use style="fill:#b2b2b2;stroke:#ffffff;stroke-width:0.5;" x="124.8" xlink:href="#m2a1ef9ac94" y="-1.0"/>
    </g>
   </g>
   <g id="line2d_10">
    <path clip-path="url(#p5f9f4ac8f9)" d="
M168.96 160.32
M168.96 145
L168.96 116.16
L168.96 72
L168.96 27.84
L168.96 -1" style="fill:none;stroke:#b2b2b2;stroke-linecap:square;"/>
    <g clip-path="url(#p5f9f4ac8f9)">
     <use style="fill:#b2b2b2;stroke:#ffffff;stroke-width:0.5;" x="168.96" xlink:href="#m2a1ef9ac94" y="160.32"/>
     <use style="fill:#b2b2b2;stroke:#ffffff;stroke-width:0.5;" x="168.96" xlink:href="#m2a1ef9ac94" y="116.16"/>
     <use style="fill:#b2b2b2;stroke:#ffffff;stroke-width:0.5;" x="168.96" xlink:href="#m2a1ef9ac94" y="72.0"/>
     <use style="fill:#b2b2b2;stroke:#ffffff;stroke-width:0.5;" x="168.96" xlink:href="#m2a1ef9ac94" y="27.84"/>
     <use style="fill:#b2b2b2;stroke:#ffffff;stroke-width:0.5;" x="168.96" xlink:href="#m2a1ef9ac94" y="-1.0"/>
    </g>
   </g>
   <g id="line2d_11">
    <path clip-path="url(#p5f9f4ac8f9)" d="
M213.12 160.32
M213.12 145
L213.12 116.16
L213.12 72
L213.12 27.84
L213.12 -1" style="fill:none;stroke:#b2b2b2;stroke-linecap:square;"/>
    <g clip-path="url(#p5f9f4ac8f9)">
     <use style="fill:#b2b2b2;stroke:#ffffff;stroke-width:0.5;" x="213.12" xlink:href="#m2a1ef9ac94" y="160.32"/>
     <use style="fill:#b2b2b2;stroke:#ffffff;stroke-width:0.5;" x="213.12" xlink:href="#m2a1ef9ac94" y="116.16"/>
     <use style="fill:#b2b2b2;stroke:#ffffff;stroke-width:0.5;" x="213.12" xlink:href="#m2a1ef9ac94" y="72.0"/>
     <use style="fill:#b2b2b2;stroke:#ffffff;stroke-width:0.5;" x="213.12" xlink:href="#m2a1ef9ac94" y="27.84"/>
     <use style="fill:#b2b2b2;stroke:#ffffff;stroke-width:0.5;" x="213.12" xlink:href="#m2a1ef9ac94" y="-1.0"/>
    </g>
   </g>
   <g id="line2d_12">
    <path clip-path="url(#p5f9f4ac8f9)" d="
M257.28 160.32
M257.28 145
L257.28 116.16
L257.28 72
L257.28 27.84
L257.28 -1" style="fill:none;stroke:#b2b2b2;stroke-linecap:square;"/>
    <g clip-path="url(#p5f9f4ac8f9)">
     <use style="fill:#b2b2b2;stroke:#ffffff;stroke-width:0.5;" x="257.28" xlink:href="#m2a1ef9ac94" y="160.32"/>
     <use style="fill:#b2b2b2;stroke:#ffffff;stroke-width:0.5;" x="257.28" xlink:href="#m2a1ef9ac94" y="116.16"/>
     <use style="fill:#b2b2b2;stroke:#ffffff;stroke-width:0.5;" x="257.28" xlink:href="#m2a1ef9ac94" y="72.0"/>
     <use style="fill:#b2b2b2;stroke:#ffffff;stroke-width:0.5;" x="257.28" xlink:href="#m2a1ef9ac94" y="27.84"/>
     <use style="fill:#b2b2b2;stroke:#ffffff;stroke-width:0.5;" x="257.28" xlink:href="#m2a1ef9ac94" y="-1.0"/>
    </g>
   </g>
   <g id="line2d_13">
    <path clip-path="url(#p5f9f4ac8f9)" d="
M301.44 160.32
M301.44 145
L301.44 116.16
L301.44 72
L301.44 27.84
L301.44 -1" style="fill:none;stroke:#b2b2b2;stroke-linecap:square;"/>
    <g clip-path="url(#p5f9f4ac8f9)">
     <use style="fill:#b2b2b2;stroke:#ffffff;stroke-width:0.5;" x="301.44" xlink:href="#m2a1ef9ac94" y="160.32"/>
     <use style="fill:#b2b2b2;stroke:#ffffff;stroke-width:0.5;" x="301.44" xlink:href="#m2a1ef9ac94" y="116.16"/>
     <use style="fill:#b2b2b2;stroke:#ffffff;stroke-width:0.5;" x="301.44" xlink:href="#m2a1ef9ac94" y="72.0"/>
     <use style="fill:#b2b2b2;stroke:#ffffff;stroke-width:0.5;" x="301.44" xlink:href="#m2a1ef9ac94" y="27.84"/>
     <use style="fill:#b2b2b2;stroke:#ffffff;stroke-width:0.5;" x="301.44" xlink:href="#m2a1ef9ac94" y="-1.0"/>
    </g>
   </g>
   <g id="line2d_14">
    <path clip-path="url(#p5f9f4ac8f9)" d="
M146.88 138.24
L146.88 5.76" style="fill:none;stroke:#000000;stroke-dasharray:6.000000,6.000000;stroke-dashoffset:0.0;stroke-width:1.5;"/>
   </g>
   <g id="line2d_15">
    <defs>
     <path d="
M0 3
C0.795609 3 1.55874 2.6839 2.12132 2.12132
C2.6839 1.55874 3 0.795609 3 0
C3 -0.795609 2.6839 -1.55874 2.12132 -2.12132
C1.55874 -2.6839 0.795609 -3 0 -3
C-0.795609 -3 -1.55874 -2.6839 -2.12132 -2.12132
C-2.6839 -1.55874 -3 -0.795609 -3 0
C-3 0.795609 -2.6839 1.55874 -2.12132 2.12132
C-1.55874 2.6839 -0.795609 3 0 3
z
" id="m8b0675cc3b" style="stroke:#000000;stroke-width:0.5;"/>
    </defs>
    <g clip-path="url(#p5f9f4ac8f9)">
     <use style="stroke:#000000;stroke-width:0.5;" x="80.64" xlink:href="#m8b0675cc3b" y="72.0"/>
     <use style="stroke:#000000;stroke-width:0.5;" x="124.8" xlink:href="#m8b0675cc3b" y="72.0"/>
     <use style="stroke:#000000;stroke-width:0.5;" x="168.96" xlink:href="#m8b0675cc3b" y="72.0"/>
     <use style="stroke:#000000;stroke-width:0.5;" x="213.12" xlink:href="#m8b0675cc3b" y="72.0"/>
    </g>
   </g>
   <g id="line2d_16">
    <path clip-path="url(#p5f9f4ac8f9)" d="
M80.64 72
L213.12 72" style="fill:none;stroke:#000000;stroke-dasharray:6.000000,6.000000;stroke-dashoffset:0.0;stroke-width:1.5;"/>
   </g>
   <g id="patch_3">
    <path d="
M14.4 5.76
L279.36 5.76" style="fill:none;stroke:#000000;stroke-linecap:square;stroke-linejoin:miter;"/>
   </g>
   <g id="patch_4">
    <path d="
M279.36 138.24
L279.36 5.76" style="fill:none;stroke:#000000;stroke-linecap:square;stroke-linejoin:miter;"/>
   </g>
   <g id="patch_5">
    <path d="
M14.4 138.24
L279.36 138.24" style="fill:none;stroke:#000000;stroke-linecap:square;stroke-linejoin:miter;"/>
   </g>
   <g id="patch_6">
    <path d="
M14.4 138.24
L14.4 5.76" style="fill:none;stroke:#000000;stroke-linecap:square;stroke-linejoin:miter;"/>
   </g>
   <g id="matplotlib.axis_1"/>
   <g id="matplotlib.axis_2"/>
   <g id="Quiver_1">
    <path clip-path="url(#p5f9f4ac8f9)" d="
M81.5287 72.4444
L63.4479 108.606
L65.6696 108.606
L58.56 116.16
L60.3374 105.94
L61.6705 107.717
L79.7513 71.5556
L81.5287 72.4444"/>
    <path clip-path="url(#p5f9f4ac8f9)" d="
M125.503 72.7026
L109.746 88.4593
L111.854 89.1619
L102.72 94.08
L107.638 84.9464
L108.341 87.0542
L124.097 71.2974
L125.503 72.7026"/>
    <path clip-path="url(#p5f9f4ac8f9)" d="
M168.257 72.7026
L152.501 56.9458
L151.798 59.0536
L146.88 49.92
L156.014 54.8381
L153.906 55.5407
L169.663 71.2974
L168.257 72.7026"/>
    <path clip-path="url(#p5f9f4ac8f9)" d="
M212.231 72.4444
L194.15 36.2827
L192.817 38.0601
L191.04 27.84
L198.15 35.394
L195.928 35.394
L214.009 71.5556
L212.231 72.4444"/>
   </g>
  </g>
  <g id="axes_2">
   <g id="patch_7">
    <path clip-path="url(#p6b078baf5d)" d="
M338.88 116.16
L383.04 116.16
L383.04 27.84
L427.2 27.84
L427.2 72
L338.88 72
z
" style="fill:#b2b2b2;"/>
   </g>
   <g id="patch_8">
    <path clip-path="url(#p1a3b3aacf2)" d="
M383.04 116.16
C394.751 116.16 405.985 111.507 414.266 103.226
C422.547 94.9446 427.2 83.7114 427.2 72
C427.2 60.2886 422.547 49.0554 414.266 40.7742
C405.985 32.493 394.751 27.84 383.04 27.84
C371.329 27.84 360.095 32.493 351.814 40.7742
C343.533 49.0554 338.88 60.2886 338.88 72
C338.88 83.7114 343.533 94.9446 351.814 103.226
C360.095 111.507 371.329 116.16 383.04 116.16
L383.04 116.16" style="fill:none;stroke:#000000;stroke-linejoin:miter;stroke-width:1.5;"/>
   </g>
   <g id="line2d_17">
    <path clip-path="url(#p1a3b3aacf2)" d="
M383.04 138.24
L383.04 5.76" style="fill:none;stroke:#000000;stroke-dasharray:6.000000,6.000000;stroke-dashoffset:0.0;stroke-width:1.5;"/>
   </g>
  </g>
  <g id="axes_3">
   <g id="line2d_18">
    <path clip-path="url(#pf09c1243af)" d="
M498.24 138.24
L498.24 5.76" style="fill:none;stroke:#000000;stroke-dasharray:6.000000,6.000000;stroke-dashoffset:0.0;stroke-width:1.5;"/>
   </g>
   <g id="Quiver_2">
    <path clip-path="url(#pf09c1243af)" d="
M487.697 49.92
L487.697 89.6088
L488.69 89.112
L487.2 94.08
L485.71 89.112
L486.703 89.6088
L486.703 49.92
L487.697 49.92" style="stroke:#000000;stroke-width:1.5;"/>
    <path clip-path="url(#pf09c1243af)" d="
M508.783 94.08
L508.783 54.3912
L507.79 54.888
L509.28 49.92
L510.77 54.888
L509.777 54.3912
L509.777 94.08
L508.783 94.08" style="stroke:#000000;stroke-width:1.5;"/>
   </g>
  </g>
 </g>
 <defs>
  <clipPath id="p5f9f4ac8f9">
   <rect height="132.48" width="264.96" x="14.4" y="5.76"/>
  </clipPath>
  <clipPath id="p1a3b3aacf2">
   <rect height="132.48" width="132.48" x="316.8" y="5.76"/>
  </clipPath>
  <clipPath id="p6b078baf5d">
   <path d="
M383.04 116.16
C394.751 116.16 405.985 111.507 414.266 103.226
C422.547 94.9446 427.2 83.7114 427.2 72
C427.2 60.2886 422.547 49.0554 414.266 40.7742
C405.985 32.493 394.751 27.84 383.04 27.84
C371.329 27.84 360.095 32.493 351.814 40.7742
C343.533 49.0554 338.88 60.2886 338.88 72
C338.88 83.7114 343.533 94.9446 351.814 103.226
C360.095 111.507 371.329 116.16 383.04 116.16
z
"/>
  </clipPath>
  <clipPath id="pf09c1243af">
   <rect height="132.48" width="132.48" x="432.0" y="5.76"/>
  </clipPath>
 </defs>
</svg>
