<?xml version="1.0" encoding="utf-8" standalone="no"?>
<!DOCTYPE svg PUBLIC "-//W3C//DTD SVG 1.1//EN"
  "http://www.w3.org/Graphics/SVG/1.1/DTD/svg11.dtd">
<!-- Created with matplotlib (http://matplotlib.org/) -->
<svg height="144pt" version="1.1" viewBox="0 0 576 144" width="576pt" xmlns="http://www.w3.org/2000/svg" xmlns:xlink="http://www.w3.org/1999/xlink">
 <g id="figure_1">
  <g id="patch_1">
   <path d="
M0 144
L576 144
L576 0
L0 0
z
" style="fill:#ffffff;"/>
  </g>
  <g id="axes_1">
   <g id="patch_2">
    <path d="
M14.4 138.24
L279.36 138.24
L279.36 5.76
L14.4 5.76
z
" style="fill:#ffffff;"/>
   </g>
   <g id="line2d_1">
    <path clip-path="url(#p5f9f4ac8f9)" d="
M14.4 160.32" style="fill:none;stroke:#b2b2b2;stroke-linecap:square;"/>
   </g>
   <g id="line2d_2">
    <path clip-path="url(#p5f9f4ac8f9)" d="
M14.4 116.16
L58.56 116.16
L102.72 116.16
L146.88 116.16
L191.04 116.16
L235.2 116.16
L279.36 116.16" style="fill:none;stroke:#b2b2b2;stroke-linecap:square;"/>
   </g>
   <g id="line2d_3">
    <path clip-path="url(#p5f9f4ac8f9)" d="
M14.4 72
L58.56 72
L102.72 72
L146.88 72
L191.04 72
L235.2 72
L279.36 72" style="fill:none;stroke:#b2b2b2;stroke-linecap:square;"/>
   </g>
   <g id="line2d_4">
    <path clip-path="url(#p5f9f4ac8f9)" d="
M14.4 27.84
L58.56 27.84
L102.72 27.84
L146.88 27.84
L191.04 27.84
L235.2 27.84
L279.36 27.84" style="fill:none;stroke:#b2b2b2;stroke-linecap:square;"/>
   </g>
   <g id="line2d_5">
    <path clip-path="url(#p5f9f4ac8f9)" d="
M14.4 -16.32" style="fill:none;stroke:#b2b2b2;stroke-linecap:square;"/>
   </g>
   <g id="line2d_6">
    <path clip-path="url(#p5f9f4ac8f9)" d="
M14.4 160.32
M14.4 145
L14.4 116.16
L14.4 72
L14.4 27.84
L14.4 -1" style="fill:none;stroke:#b2b2b2;stroke-linecap:square;"/>
    <defs>
     <path d="
M0 3
C0.795609 3 1.55874 2.6839 2.12132 2.12132
C2.6839 1.55874 3 0.795609 3 0
C3 -0.795609 2.6839 -1.55874 2.12132 -2.12132
C1.55874 -2.6839 0.795609 -3 0 -3
C-0.795609 -3 -1.55874 -2.6839 -2.12132 -2.12132
C-2.6839 -1.55874 -3 -0.795609 -3 0
C-3 0.795609 -2.6839 1.55874 -2.12132 2.12132
C-1.55874 2.6839 -0.795609 3 0 3
z
" id="m2a1ef9ac94" style="stroke:#ffffff;stroke-width:0.5;"/>
    </defs>
    <g clip-path="url(#p5f9f4ac8f9)">
     <use style="fill:#b2b2b2;stroke:#ffffff;stroke-width:0.5;" x="14.4" xlink:href="#m2a1ef9ac94" y="160.32"/>
     <use style="fill:#b2b2b2;stroke:#ffffff;stroke-width:0.5;" x="14.4" xlink:href="#m2a1ef9ac94" y="116.16"/>
     <use style="fill:#b2b2b2;stroke:#ffffff;stroke-width:0.5;" x="14.4" xlink:href="#m2a1ef9ac94" y="72.0"/>
     <use style="fill:#b2b2b2;stroke:#ffffff;stroke-width:0.5;" x="14.4" xlink:href="#m2a1ef9ac94" y="27.84"/>
     <use style="fill:#b2b2b2;stroke:#ffffff;stroke-width:0.5;" x="14.4" xlink:href="#m2a1ef9ac94" y="-1.0"/>
    </g>
   </g>
   <g id="line2d_7">
    <path clip-path="url(#p5f9f4ac8f9)" d="
M58.56 160.32
M58.56 145
L58.56 116.16
L58.56 72
L58.56 27.84
L58.56 -1" style="fill:none;stroke:#b2b2b2;stroke-linecap:square;"/>
    <g clip-path="url(#p5f9f4ac8f9)">
     <use style="fill:#b2b2b2;stroke:#ffffff;stroke-width:0.5;" x="58.56" xlink:href="#m2a1ef9ac94" y="160.32"/>
     <use style="fill:#b2b2b2;stroke:#ffffff;stroke-width:0.5;" x="58.56" xlink:href="#m2a1ef9ac94" y="116.16"/>
     <use style="fill:#b2b2b2;stroke:#ffffff;stroke-width:0.5;" x="58.56" xlink:href="#m2a1ef9ac94" y="72.0"/>
     <use style="fill:#b2b2b2;stroke:#ffffff;stroke-width:0.5;" x="58.56" xlink:href="#m2a1ef9ac94" y="27.84"/>
     <use style="fill:#b2b2b2;stroke:#ffffff;stroke-width:0.5;" x="58.56" xlink:href="#m2a1ef9ac94" y="-1.0"/>
    </g>
   </g>
   <g id="line2d_8">
    <path clip-path="url(#p5f9f4ac8f9)" d="
M102.72 160.32
M102.72 145
L102.72 116.16
L102.72 72
L102.72 27.84
L102.72 -1" style="fill:none;stroke:#b2b2b2;stroke-linecap:square;"/>
    <g clip-path="url(#p5f9f4ac8f9)">
     <use style="fill:#b2b2b2;stroke:#ffffff;stroke-width:0.5;" x="102.72" xlink:href="#m2a1ef9ac94" y="160.32"/>
     <use style="fill:#b2b2b2;stroke:#ffffff;stroke-width:0.5;" x="102.72" xlink:href="#m2a1ef9ac94" y="116.16"/>
     <use style="fill:#b2b2b2;stroke:#ffffff;stroke-width:0.5;" x="102.72" xlink:href="#m2a1ef9ac94" y="72.0"/>
     <use style="fill:#b2b2b2;stroke:#ffffff;stroke-width:0.5;" x="102.72" xlink:href="#m2a1ef9ac94" y="27.84"/>
     <use style="fill:#b2b2b2;stroke:#ffffff;stroke-width:0.5;" x="102.72" xlink:href="#m2a1ef9ac94" y="-1.0"/>
    </g>
   </g>
   <g id="line2d_9">
    <path clip-path="url(#p5f9f4ac8f9)" d="
M146.88 160.32
M146.88 145
L146.88 116.16
L146.88 72
L146.88 27.84
L146.88 -1" style="fill:none;stroke:#b2b2b2;stroke-linecap:square;"/>
    <g clip-path="url(#p5f9f4ac8f9)">
     <use style="fill:#b2b2b2;stroke:#ffffff;stroke-width:0.5;" x="146.88" xlink:href="#m2a1ef9ac94" y="160.32"/>
     <use style="fill:#b2b2b2;stroke:#ffffff;stroke-width:0.5;" x="146.88" xlink:href="#m2a1ef9ac94" y="116.16"/>
     <use style="fill:#b2b2b2;stroke:#ffffff;stroke-width:0.5;" x="146.88" xlink:href="#m2a1ef9ac94" y="72.0"/>
     <use style="fill:#b2b2b2;stroke:#ffffff;stroke-width:0.5;" x="146.88" xlink:href="#m2a1ef9ac94" y="27.84"/>
     <use style="fill:#b2b2b2;stroke:#ffffff;stroke-width:0.5;" x="146.88" xlink:href="#m2a1ef9ac94" y="-1.0"/>
    </g>
   </g>
   <g id="line2d_10">
    <path clip-path="url(#p5f9f4ac8f9)" d="
M191.04 160.32
M191.04 145
L191.04 116.16
L191.04 72
L191.04 27.84
L191.04 -1" style="fill:none;stroke:#b2b2b2;stroke-linecap:square;"/>
    <g clip-path="url(#p5f9f4ac8f9)">
     <use style="fill:#b2b2b2;stroke:#ffffff;stroke-width:0.5;" x="191.04" xlink:href="#m2a1ef9ac94" y="160.32"/>
     <use style="fill:#b2b2b2;stroke:#ffffff;stroke-width:0.5;" x="191.04" xlink:href="#m2a1ef9ac94" y="116.16"/>
     <use style="fill:#b2b2b2;stroke:#ffffff;stroke-width:0.5;" x="191.04" xlink:href="#m2a1ef9ac94" y="72.0"/>
     <use style="fill:#b2b2b2;stroke:#ffffff;stroke-width:0.5;" x="191.04" xlink:href="#m2a1ef9ac94" y="27.84"/>
     <use style="fill:#b2b2b2;stroke:#ffffff;stroke-width:0.5;" x="191.04" xlink:href="#m2a1ef9ac94" y="-1.0"/>
    </g>
   </g>
   <g id="line2d_11">
    <path clip-path="url(#p5f9f4ac8f9)" d="
M235.2 160.32
M235.2 145
L235.2 116.16
L235.2 72
L235.2 27.84
L235.2 -1" style="fill:none;stroke:#b2b2b2;stroke-linecap:square;"/>
    <g clip-path="url(#p5f9f4ac8f9)">
     <use style="fill:#b2b2b2;stroke:#ffffff;stroke-width:0.5;" x="235.2" xlink:href="#m2a1ef9ac94" y="160.32"/>
     <use style="fill:#b2b2b2;stroke:#ffffff;stroke-width:0.5;" x="235.2" xlink:href="#m2a1ef9ac94" y="116.16"/>
     <use style="fill:#b2b2b2;stroke:#ffffff;stroke-width:0.5;" x="235.2" xlink:href="#m2a1ef9ac94" y="72.0"/>
     <use style="fill:#b2b2b2;stroke:#ffffff;stroke-width:0.5;" x="235.2" xlink:href="#m2a1ef9ac94" y="27.84"/>
     <use style="fill:#b2b2b2;stroke:#ffffff;stroke-width:0.5;" x="235.2" xlink:href="#m2a1ef9ac94" y="-1.0"/>
    </g>
   </g>
   <g id="line2d_12">
    <path clip-path="url(#p5f9f4ac8f9)" d="
M279.36 160.32
M279.36 145
L279.36 116.16
L279.36 72
L279.36 27.84
L279.36 -1" style="fill:none;stroke:#b2b2b2;stroke-linecap:square;"/>
    <g clip-path="url(#p5f9f4ac8f9)">
     <use style="fill:#b2b2b2;stroke:#ffffff;stroke-width:0.5;" x="279.36" xlink:href="#m2a1ef9ac94" y="160.32"/>
     <use style="fill:#b2b2b2;stroke:#ffffff;stroke-width:0.5;" x="279.36" xlink:href="#m2a1ef9ac94" y="116.16"/>
     <use style="fill:#b2b2b2;stroke:#ffffff;stroke-width:0.5;" x="279.36" xlink:href="#m2a1ef9ac94" y="72.0"/>
     <use style="fill:#b2b2b2;stroke:#ffffff;stroke-width:0.5;" x="279.36" xlink:href="#m2a1ef9ac94" y="27.84"/>
     <use style="fill:#b2b2b2;stroke:#ffffff;stroke-width:0.5;" x="279.36" xlink:href="#m2a1ef9ac94" y="-1.0"/>
    </g>
   </g>
   <g id="line2d_13">
    <path clip-path="url(#p5f9f4ac8f9)" d="
M146.88 138.24
L146.88 5.76" style="fill:none;stroke:#000000;stroke-dasharray:6.000000,6.000000;stroke-dashoffset:0.0;stroke-width:1.5;"/>
   </g>
   <g id="line2d_14">
    <defs>
     <path d="
M0 3
C0.795609 3 1.55874 2.6839 2.12132 2.12132
C2.6839 1.55874 3 0.795609 3 0
C3 -0.795609 2.6839 -1.55874 2.12132 -2.12132
C1.55874 -2.6839 0.795609 -3 0 -3
C-0.795609 -3 -1.55874 -2.6839 -2.12132 -2.12132
C-2.6839 -1.55874 -3 -0.795609 -3 0
C-3 0.795609 -2.6839 1.55874 -2.12132 2.12132
C-1.55874 2.6839 -0.795609 3 0 3
z
" id="m8b0675cc3b" style="stroke:#000000;stroke-width:0.5;"/>
    </defs>
    <g clip-path="url(#p5f9f4ac8f9)">
     <use style="stroke:#000000;stroke-width:0.5;" x="58.56" xlink:href="#m8b0675cc3b" y="72.0"/>
     <use style="stroke:#000000;stroke-width:0.5;" x="102.72" xlink:href="#m8b0675cc3b" y="72.0"/>
     <use style="stroke:#000000;stroke-width:0.5;" x="146.88" xlink:href="#m8b0675cc3b" y="72.0"/>
    </g>
   </g>
   <g id="patch_3">
    <path d="
M14.4 5.76
L279.36 5.76" style="fill:none;stroke:#000000;stroke-linecap:square;stroke-linejoin:miter;"/>
   </g>
   <g id="patch_4">
    <path d="
M279.36 138.24
L279.36 5.76" style="fill:none;stroke:#000000;stroke-linecap:square;stroke-linejoin:miter;"/>
   </g>
   <g id="patch_5">
    <path d="
M14.4 138.24
L279.36 138.24" style="fill:none;stroke:#000000;stroke-linecap:square;stroke-linejoin:miter;"/>
   </g>
   <g id="patch_6">
    <path d="
M14.4 138.24
L14.4 5.76" style="fill:none;stroke:#000000;stroke-linecap:square;stroke-linejoin:miter;"/>
   </g>
   <g id="matplotlib.axis_1"/>
   <g id="matplotlib.axis_2"/>
   <g id="Quiver_1">
    <path clip-path="url(#p5f9f4ac8f9)" d="
M59.4487 72.4444
L41.3679 108.606
L43.5896 108.606
L36.48 116.16
L38.2574 105.94
L39.5905 107.717
L57.6713 71.5556
L59.4487 72.4444"/>
    <path clip-path="url(#p5f9f4ac8f9)" d="
M103.423 72.7026
L87.6658 88.4593
L89.7736 89.1619
L80.64 94.08
L85.5581 84.9464
L86.2607 87.0542
L102.017 71.2974
L103.423 72.7026"/>
    <path clip-path="url(#p5f9f4ac8f9)" d="
M147.823 71.6858
L156.035 96.3223
L157.606 94.7513
L157.92 105.12
L151.95 96.6365
L154.15 96.9507
L145.937 72.3142
L147.823 71.6858"/>
   </g>
  </g>
 </g>
 <defs>
  <clipPath id="p5f9f4ac8f9">
   <rect height="132.48" width="264.96" x="14.4" y="5.76"/>
  </clipPath>
 </defs>
</svg>
